PathFileType	4	(X/Y/Z)	C:/Users/beibeiliu/ov580/test_trc/User2\sequence.10_training_dense_left.trc
DataRate	CameraRate	NumFrames	NumMarkers	Units	OrigDataRate	OrigDataStartFrame	OrigNumFrames
120	120	9	19	mm	120	182	484
Frame#	Time	ThumbCMC			ThumbMCP			ThumbIP			ThumbTip			IndexMCP			IndexPIP			IndexTip			MiddleMCP			MiddlePIP			MiddleTip			RingMCP			RingPIP			RingTip			PinkyMCP			PinkyPIP			PinkyTip			BackHand1			BackHand2			BackHand3	
		X0	Y0	Z0	X1	Y1	Z1	X2	Y2	Z2	X3	Y3	Z3	X4	Y4	Z4	X5	Y5	Z5	X6	Y6	Z6	X7	Y7	Z7	X8	Y8	Z8	X9	Y9	Z9	X10	Y10	Z10	X11	Y11	Z11	X12	Y12	Z12	X13	Y13	Z13	X14	Y14	Z14	X15	Y15	Z15	X16	Y16	Z16	X17	Y17	Z17	X18	Y18	Z18	
181	1.50833	-133.096	-58.7258	112.819	-123.989	-92.4657	93.7925	-131.128	-118.875	73.4852	-152.891	-133.534	57.752	-155.41	-50.2686	32.5207	-158.452	-55.4765	10.2142	-159.782	-59.4494	-21.7999	-180.859	-75.7788	34.2225	-176.652	-111.121	30.9986	-167.479	-127.562	70.8791	-202.366	-84.6004	48.2815	-192.81	-119.38	50.0553	-177.839	-128.084	77.7427	-218.651	-88.3782	67.5147	-199.494	-118.524	70.1098	-181.871	-119.467	96.9138	-196.302	-36.5737	90.1339	-194.869	-24.2429	123.728	-164.083	-27.8689	98.0374	
182	1.51667	-121.054	-61.4844	120.136	-108.044	-94.1703	99.5847	-110.763	-122.111	75.1894	-126.569	-136.953	59.8335	-132.147	-54.6528	37.7164	-129.88	-59.5882	11.8191	-128.978	-64.3687	-19.2142	-154.724	-81.1216	32.1455	-151.185	-120.799	33.1469	-147.212	-132.796	66.7922	-173.072	-93.25	40.4164	-168.038	-124.128	45.5983	-157.87	-132.388	81.0511	-195.204	-97.0505	57.3264	-184.392	-126.648	65.3334	-167.385	-120.686	95.5198	-184.052	-45.3232	87.6184	-183.839	-30.7572	120.061	-149.811	-32.8153	101.528	
183	1.525	-110.852	-63.2446	121.932	-94.1597	-94.9448	103.866	-93.5441	-120.269	78.5407	-112.734	-132.587	59.7793	-113.901	-52.8783	39.3392	-102.697	-55.3017	11.0388	-98.8643	-58.6231	-12.5522	-136.73	-78.261	33.5727	-129.202	-118.988	31.212	-127.828	-131.785	68.313	-155.526	-90.6533	38.518	-149.965	-124.102	41.6341	-140.538	-131.032	74.327	-177.593	-94.5225	52.0778	-161.097	-123.829	58.4291	-151.478	-123.128	87.7938	-166.775	-45.5842	88.048	-176.375	-34.1145	117.21	-138.422	-33.9221	105.447	
184	1.53333	-99.8206	-63.2506	121.759	-85.5693	-92.9652	104.302	-87.1386	-115.431	77.1873	-98.7923	-128.291	58.5836	-101.391	-46.2767	44.5392	-91.4864	-47.0213	19.6345	-87.6476	-47.5755	-8.10159	-123.951	-74.321	30.8817	-114.949	-107.229	26.4952	-115.881	-126.836	62.1159	-144.811	-85.4123	34.6999	-136.407	-114.726	37.2801	-131.6	-125.952	73.5511	-164.622	-88.4569	47.4544	-149.661	-117.731	52.5009	-146.348	-118.775	84.0046	-158.597	-41.9649	87.0349	-164.649	-34.7194	120.28	-127.658	-32.1595	105.896	
185	1.54167	-95.5136	-61.5335	123.614	-82.3913	-88.0351	100.394	-82.8836	-108.478	69.9471	-98.8122	-118.344	50.9677	-96.1971	-37.2566	44.0676	-89.2208	-36.5775	20.6076	-84.3433	-36.0931	-6.71503	-117.182	-61.38	31.8705	-115.519	-96.7042	24.2132	-114.852	-118.226	57.1566	-141.439	-72.7542	38.2976	-132.696	-103.318	32.9182	-127.081	-116.769	68.2319	-160.443	-76.3323	50.7598	-149.143	-111.004	50.8352	-140.67	-111.061	79.1453	-153.313	-36.0286	90.2306	-157.123	-31.1853	121.018	-121.412	-28.5814	109.18	
186	1.55	-91.9545	-56.6143	122.423	-82.4049	-82.7699	96.121	-82.9259	-103.238	66.1921	-99.1108	-112.49	47.0537	-102.177	-30.7857	47.4227	-94.933	-26.2473	15.5352	-92.3215	-25.4398	-7.13843	-127.437	-51.386	35.1744	-120.016	-88.4661	21.9031	-118.428	-111.205	53.0862	-144.43	-66.799	36.2513	-140.583	-98.1275	34.2367	-132.314	-110.481	69.3946	-168.677	-73.4942	50.1141	-152.818	-101.175	48.9443	-138.691	-102.841	80.1272	-159.743	-32.2927	95.4684	-158.661	-25.5464	125.724	-121.159	-23.8378	114.52	
187	1.55833	-100.789	-51.9219	118.892	-91.0093	-75.9815	92.9274	-93.9092	-96.6166	60.6424	-110.769	-105.534	40.5661	-114.968	-23.0773	42.0984	-110.137	-19.4135	18.5435	-110.936	-17.1267	-13.8852	-136.636	-45.2073	31.7516	-136.995	-80.0505	19.5656	-129.566	-103.613	48.9878	-156.287	-59.7709	37.8758	-150.166	-89.9373	34.1856	-140.18	-105.26	63.4752	-179.448	-68.7406	54.5638	-164.789	-99.0728	53.02	-148.125	-99.9933	81.5891	-160.643	-27.8648	95.1901	-164.197	-24.4626	129.624	-130.822	-19.0174	110.866	
188	1.56667	-105.821	-47.3995	113.802	-99.2578	-73.6134	85.4506	-108.301	-93.2804	55.8214	-131.225	-102.127	40.6062	-130.82	-19.4578	40.9696	-129.986	-16.8229	15.2199	-137.044	-15.3196	-14.721	-158.69	-40.4642	37.0155	-154.171	-75.0919	20.4114	-140.034	-99.9031	53.0027	-176.713	-56.9183	42.9943	-170	-88.7655	37.8767	-151.209	-101.658	67.0202	-190.687	-66.3922	59.0101	-180.243	-95.582	57.6439	-161.179	-99.9676	83.3799	-176.093	-22.6873	98.6208	-168.063	-19.1731	136.408	-138.306	-14.06	108.923	
189	1.575	-114.114	-45.7815	109.699	-114.562	-71.8121	84.6551	-122.266	-95.687	57.7124	-147.532	-105.76	41.9459	-144.437	-20.1282	41.6338	-149.479	-18.7111	12.7931	-156.669	-17.4903	-12.8294	-173.279	-40.5393	38.2154	-174.831	-76.205	24.8843	-158.054	-99.0059	56.5394	-189.001	-55.8881	46.063	-186.11	-90.458	43.9761	-163.291	-102.21	70.557	-205.774	-65.3927	66.6372	-191.708	-92.6608	63.1364	-168.093	-98.4624	86.3397	-179.947	-19.176	105.786	-173.241	-14.3823	138.927	-143.002	-13.4651	109.851	
